<svg width="340" height="340" viewBox="0 0 340 340" fill="none" xmlns="http://www.w3.org/2000/svg">
<path fill-rule="evenodd" clip-rule="evenodd" d="M310.143 73.7431C279.491 29.2022 228.156 0 170 0C149.304 0 129.472 3.6983 111.128 10.4701L151.383 33.2451C157.471 32.424 163.686 32 170 32C222.969 32 268.968 61.8431 292.1 105.633L310.143 73.7431ZM307.905 175.176L334.717 127.785C338.166 141.283 340 155.427 340 170C340 223.281 315.488 270.838 277.126 302.007L246.656 284.769C282.306 260.91 306.219 220.882 307.905 175.176ZM188.15 306.817C182.21 307.597 176.152 308 170 308C127.141 308 88.8454 288.462 63.534 257.807L46.8865 287.231C77.8513 319.74 121.56 340 170 340C190.565 340 210.276 336.349 228.522 329.659L188.15 306.817ZM16.5804 243.32C5.95203 221.121 0 196.255 0 170C0 116.828 24.4111 69.3582 62.6375 38.1854L93.0796 55.4087C56.2384 80.1875 32 122.263 32 170C32 182.865 33.7604 195.319 37.0536 207.134L16.5804 243.32ZM97.609 223.413V129.813H122.665L138.361 171.573L143 184.352V160H143.149C143.125 158.944 143.113 157.905 143.113 156.885V129.813H166.729V223.413H141.673L125.977 181.509L121 167.893V188.99C121.15 191.491 121.225 193.941 121.225 196.341V223.413H97.609ZM217.937 225.141C211.793 225.141 205.505 224.085 199.073 221.973C192.737 219.765 186.929 216.357 181.649 211.749L195.761 194.757C199.313 197.445 203.105 199.653 207.137 201.381C211.169 203.013 215.345 203.829 219.665 203.829C223.409 203.829 226.049 203.301 227.585 202.245C229.217 201.189 230.033 199.893 230.033 198.357C230.033 197.013 229.697 195.909 229.025 195.045C228.449 194.085 227.585 193.269 226.433 192.597C225.281 191.829 223.841 191.109 222.113 190.437C220.481 189.765 218.609 188.997 216.497 188.133L204.833 183.237C202.145 182.277 199.601 181.029 197.201 179.493C194.801 177.861 192.689 175.989 190.865 173.877C189.137 171.669 187.745 169.173 186.689 166.389C185.633 163.605 185.105 160.533 185.105 157.173C185.105 153.141 185.969 149.397 187.697 145.941C189.425 142.389 191.825 139.317 194.897 136.725C198.065 134.037 201.809 131.925 206.129 130.389C210.545 128.853 215.441 128.085 220.817 128.085C226.385 128.085 231.953 129.093 237.521 131.109C243.089 133.125 248.177 136.293 252.785 140.613L240.401 156.165C237.041 153.957 233.777 152.277 230.609 151.125C227.537 149.973 223.793 149.397 219.377 149.397C216.593 149.397 214.337 149.925 212.609 150.981C210.977 151.941 210.161 153.525 210.161 155.733C210.161 156.789 210.497 157.749 211.169 158.613C211.841 159.381 212.801 160.101 214.049 160.773C215.297 161.445 216.833 162.117 218.657 162.789C220.481 163.461 222.545 164.229 224.849 165.093L235.649 169.557C241.985 171.861 246.833 175.077 250.193 179.205C253.649 183.333 255.377 188.661 255.377 195.189C255.377 199.125 254.561 202.917 252.929 206.565C251.297 210.213 248.897 213.429 245.729 216.213C242.561 218.901 238.625 221.061 233.921 222.693C229.313 224.325 223.985 225.141 217.937 225.141Z" fill="#C9D1C8"/>
</svg>
