<svg width="340" height="340" viewBox="0 0 340 340" fill="none" xmlns="http://www.w3.org/2000/svg">
<path fill-rule="evenodd" clip-rule="evenodd" d="M310.143 73.7431C279.491 29.2022 228.156 0 170 0C149.304 0 129.472 3.69831 111.128 10.4701L151.383 33.2451C157.471 32.424 163.686 32 170 32C222.969 32 268.968 61.8431 292.1 105.633L310.143 73.7431ZM307.905 175.176L334.717 127.785C338.166 141.283 340 155.427 340 170C340 223.281 315.488 270.838 277.126 302.007L246.656 284.769C282.306 260.91 306.219 220.882 307.905 175.176ZM188.15 306.817C182.21 307.597 176.152 308 170 308C127.141 308 88.8454 288.462 63.534 257.807L46.8865 287.231C77.8514 319.74 121.56 340 170 340C190.564 340 210.276 336.349 228.522 329.659L188.15 306.817ZM16.5804 243.32C5.95203 221.121 0 196.255 0 170C0 116.828 24.4111 69.3582 62.6375 38.1854L93.0796 55.4087C56.2384 80.1875 32 122.263 32 170C32 182.865 33.7604 195.319 37.0536 207.134L16.5804 243.32Z" fill="#C9D1C8"/>
</svg>
