<svg width="159" height="98" viewBox="0 0 159 98" fill="none" xmlns="http://www.w3.org/2000/svg">
<path fill-rule="evenodd" clip-rule="evenodd" d="M0.296265 96V2.40002H25.3522L41.0483 44.16L46 57.8007V36.9672C45.8668 34.3689 45.8002 31.8705 45.8002 29.472V2.40002H69.4163V96H44.3602L28.6642 54.096L24 41.3354V69H23.9122V96H0.296265ZM120.624 97.728C114.48 97.728 108.192 96.672 101.76 94.56C95.424 92.352 89.616 88.944 84.336 84.336L98.448 67.344C102 70.032 105.792 72.24 109.824 73.968C113.856 75.6 118.032 76.416 122.352 76.416C126.096 76.416 128.736 75.888 130.272 74.832C131.904 73.776 132.72 72.48 132.72 70.944C132.72 69.6 132.384 68.496 131.712 67.632C131.136 66.672 130.272 65.856 129.12 65.184C127.968 64.416 126.528 63.696 124.8 63.024C123.168 62.352 121.296 61.584 119.184 60.72L107.52 55.824C104.832 54.864 102.288 53.616 99.888 52.08C97.488 50.448 95.376 48.576 93.552 46.464C91.824 44.256 90.432 41.76 89.376 38.976C88.32 36.192 87.792 33.12 87.792 29.76C87.792 25.728 88.656 21.984 90.384 18.528C92.112 14.976 94.512 11.904 97.584 9.31201C100.752 6.62396 104.496 4.51196 108.816 2.97601C113.232 1.44 118.128 0.671997 123.504 0.671997C129.072 0.671997 134.64 1.67999 140.208 3.69598C145.776 5.71198 150.864 8.88 155.472 13.2L143.088 28.752C139.728 26.544 136.464 24.864 133.296 23.712C130.224 22.56 126.48 21.984 122.064 21.984C119.28 21.984 117.024 22.512 115.296 23.568C113.664 24.528 112.848 26.112 112.848 28.32C112.848 29.376 113.184 30.336 113.856 31.2C114.528 31.968 115.488 32.688 116.736 33.36C117.984 34.032 119.52 34.704 121.344 35.376C123.168 36.048 125.232 36.816 127.536 37.68L138.336 42.144C144.672 44.448 149.52 47.664 152.88 51.792C156.336 55.92 158.064 61.248 158.064 67.776C158.064 71.712 157.248 75.504 155.616 79.152C153.984 82.8 151.584 86.016 148.416 88.8C145.248 91.488 141.312 93.648 136.608 95.28C132 96.912 126.672 97.728 120.624 97.728Z" fill="#C9D1C8"/>
</svg>
